<svg xmlns="http://www.w3.org/2000/svg" fill="none" style="width:100%;height:100%" viewBox="0 0 150 250"><path fill="url(#a)" fill-opacity=".5" d="m4.077 199.698-1.793 1.406-78.112-98.211-17.042-2.154-31.982-40.212 1.841-16.959-44.325-55.73 1.793-1.406 44.924 56.483-1.848 16.95 30.791 38.715 17.042 2.153 78.711 98.965z"/><path fill="url(#b)" fill-opacity=".5" d="m14.705 189.722-1.793 1.406L-65.8 92.163l1.832-16.952-30.791-38.715-17.026-2.15-44.924-56.485 1.793-1.406 44.325 55.73 17.033 2.161 31.983 40.212-1.833 16.952 78.112 98.212z"/><path fill="url(#c)" fill-opacity=".5" d="m47.045 164.185-1.793 1.406-44.325-55.73-17.034-2.16-31.982-40.213 1.832-16.952-78.112-98.211 1.794-1.406 78.71 98.965-1.832 16.952 30.792 38.714 17.026 2.151 44.924 56.484z"/><path fill="url(#d)" fill-opacity=".5" d="m55.323 159.015-1.793 1.406-44.924-56.484 1.84-16.943-30.792-38.715-17.034-2.16-78.711-98.965 1.794-1.406 78.112 98.212 17.033 2.16L12.83 86.332l-1.832 16.952 44.325 55.731z"/><path fill="url(#e)" fill-opacity=".5" d="m87.67 133.471-1.793 1.406L7.765 36.666l-17.042-2.153L-41.259-5.7l1.84-16.958-44.324-55.731 1.793-1.406 44.924 56.484-1.848 16.95 30.791 38.714L8.96 34.507l78.71 98.963z"/><path fill="url(#f)" fill-opacity=".5" d="m98.298 123.495-1.793 1.406-78.711-98.964 1.832-16.953-30.792-38.714-17.026-2.151-44.924-56.484 1.794-1.406 44.325 55.73 17.033 2.16L22.018 8.333l-1.832 16.952 78.112 98.211z"/><path fill="url(#g)" fill-opacity=".5" d="m130.638 97.959-1.794 1.406-44.325-55.73-17.033-2.161L35.504 1.262l1.832-16.952-78.112-98.212 1.793-1.406 78.711 98.965L37.896.609l30.791 38.715 17.027 2.15 44.924 56.485z"/><path fill="url(#h)" fill-opacity=".5" d="m138.42 93.21-1.793 1.406-44.924-56.484 1.84-16.943L62.75-17.525l-17.033-2.16-78.711-98.965 1.793-1.406 78.112 98.211 17.033 2.16 31.983 40.212-1.833 16.953 44.325 55.73z"/><path fill="url(#i)" fill-opacity=".5" d="m170.768 67.667-1.794 1.406L90.862-29.14l-17.041-2.153-31.983-40.212 1.841-16.96-44.325-55.73 1.793-1.406 44.925 56.484-1.849 16.95 30.792 38.715 17.042 2.153 78.711 98.965z"/><path fill="url(#j)" fill-opacity=".5" d="m181.395 57.69-1.793 1.407-78.711-98.965 1.832-16.952-30.791-38.715-17.026-2.151L9.982-154.17l1.793-1.406L56.1-99.846l17.033 2.16 31.983 40.213-1.833 16.952 78.112 98.212z"/><path fill="url(#k)" fill-opacity=".5" d="m213.735 32.154-1.793 1.406-44.325-55.73-17.034-2.16-31.982-40.213 1.832-16.952-78.112-98.211 1.794-1.407 78.711 98.965-1.833 16.952 30.792 38.715 17.026 2.151 44.924 56.484z"/><defs><linearGradient id="a" x1="-171.16" x2="-3.03" y1="-9.164" y2="205.271" gradientUnits="userSpaceOnUse"><stop offset=".224" stop-color="#5E5787"/><stop offset="1" stop-color="#fff" stop-opacity="0"/></linearGradient><linearGradient id="b" x1="-151.095" x2="17.035" y1="-26.54" y2="187.895" gradientUnits="userSpaceOnUse"><stop offset=".224" stop-color="#5E5787"/><stop offset="1" stop-color="#fff" stop-opacity="0"/></linearGradient><linearGradient id="c" x1="-128.188" x2="39.942" y1="-44.68" y2="169.754" gradientUnits="userSpaceOnUse"><stop offset=".224" stop-color="#5E5787"/><stop offset="1" stop-color="#fff" stop-opacity="0"/></linearGradient><linearGradient id="d" x1="-110.477" x2="57.653" y1="-57.247" y2="157.188" gradientUnits="userSpaceOnUse"><stop offset=".224" stop-color="#5E5787"/><stop offset="1" stop-color="#fff" stop-opacity="0"/></linearGradient><linearGradient id="e" x1="-87.567" x2="80.563" y1="-75.391" y2="139.044" gradientUnits="userSpaceOnUse"><stop offset=".224" stop-color="#5E5787"/><stop offset="1" stop-color="#fff" stop-opacity="0"/></linearGradient><linearGradient id="f" x1="-67.503" x2="100.628" y1="-92.766" y2="121.668" gradientUnits="userSpaceOnUse"><stop offset=".224" stop-color="#5E5787"/><stop offset="1" stop-color="#fff" stop-opacity="0"/></linearGradient><linearGradient id="g" x1="-44.596" x2="123.535" y1="-110.907" y2="103.528" gradientUnits="userSpaceOnUse"><stop offset=".224" stop-color="#5E5787"/><stop offset="1" stop-color="#fff" stop-opacity="0"/></linearGradient><linearGradient id="h" x1="-27.38" x2="140.75" y1="-123.051" y2="91.383" gradientUnits="userSpaceOnUse"><stop offset=".224" stop-color="#5E5787"/><stop offset="1" stop-color="#fff" stop-opacity="0"/></linearGradient><linearGradient id="i" x1="-4.47" x2="163.66" y1="-141.195" y2="73.239" gradientUnits="userSpaceOnUse"><stop offset=".224" stop-color="#5E5787"/><stop offset="1" stop-color="#fff" stop-opacity="0"/></linearGradient><linearGradient id="j" x1="15.595" x2="183.725" y1="-158.571" y2="55.864" gradientUnits="userSpaceOnUse"><stop offset=".224" stop-color="#5E5787"/><stop offset="1" stop-color="#fff" stop-opacity="0"/></linearGradient><linearGradient id="k" x1="38.502" x2="206.632" y1="-176.712" y2="37.723" gradientUnits="userSpaceOnUse"><stop offset=".224" stop-color="#5E5787"/><stop offset="1" stop-color="#fff" stop-opacity="0"/></linearGradient></defs></svg>